<?xml version="1.0" standalone="no"?>
<!DOCTYPE svg PUBLIC "-//W3C//DTD SVG 20010904//EN"
 "http://www.w3.org/TR/2001/REC-SVG-20010904/DTD/svg10.dtd">
<svg version="1.0" xmlns="http://www.w3.org/2000/svg"
 width="557.000000pt" height="498.000000pt" viewBox="0 0 557.000000 498.000000"
 preserveAspectRatio="xMidYMid meet">

<g transform="translate(0.000000,498.000000) scale(0.100000,-0.100000)"
fill="#000000" stroke="none">
<path d="M3619 4685 c-3 -2 -37 -9 -77 -15 -160 -25 -379 -113 -527 -213 -148
-99 -327 -306 -410 -476 -81 -163 -125 -360 -125 -552 1 -264 70 -495 217
-716 75 -114 270 -299 507 -482 199 -154 366 -409 429 -657 18 -69 38 -243 37
-306 -3 -79 -22 -232 -35 -286 -32 -120 -125 -292 -195 -357 l-32 -30 17 35
c10 19 24 42 31 51 8 8 29 47 47 85 95 194 127 415 92 624 -30 183 -56 261
-131 397 -109 198 -166 253 -547 523 -331 235 -459 379 -567 640 -17 41 -38
89 -46 107 -8 17 -14 35 -14 40 0 4 -20 71 -45 148 -66 204 -82 268 -96 385
-10 89 -9 123 5 223 13 94 13 121 4 137 -17 26 -27 25 -103 -9 -81 -37 -150
-101 -216 -202 -29 -43 -56 -79 -60 -79 -5 0 -10 60 -11 133 l-3 132 -29 3
c-24 3 -38 -6 -85 -56 -77 -82 -135 -201 -150 -302 -6 -43 -8 -45 -87 -90
-126 -70 -168 -104 -222 -177 -66 -91 -104 -160 -146 -268 -19 -49 -46 -115
-60 -145 -47 -99 -32 -183 46 -256 52 -49 75 -63 153 -95 55 -22 72 -24 198
-22 150 3 170 -2 219 -54 29 -31 58 -108 58 -158 0 -92 -45 -230 -109 -330
-33 -52 -128 -155 -143 -155 -4 0 -56 -30 -114 -67 -142 -89 -171 -132 -143
-212 14 -40 54 -61 116 -61 26 0 98 -7 158 -15 153 -20 357 -20 401 1 19 9 77
56 128 104 144 133 256 198 448 259 55 18 373 16 421 -2 75 -28 65 -36 -38
-30 -310 19 -644 -112 -798 -312 -53 -71 -113 -197 -133 -285 -26 -118 -7
-274 49 -390 30 -63 100 -171 126 -194 35 -32 15 -38 -103 -31 -216 13 -319
-20 -429 -134 -75 -78 -106 -136 -107 -198 l0 -43 1117 0 c762 0 1136 3 1177
11 166 30 273 56 290 71 6 4 16 8 24 8 29 0 205 90 285 147 147 103 299 268
379 413 38 70 96 219 112 290 8 36 20 90 27 120 17 76 17 357 -1 445 -36 184
-67 278 -141 431 -137 281 -357 496 -767 748 -249 153 -363 250 -403 343 -29
67 -29 199 -1 265 28 62 85 124 146 156 45 24 62 27 141 27 72 -1 98 -5 131
-22 95 -50 154 -161 154 -292 0 -114 39 -207 117 -282 87 -85 187 -116 327
-104 100 9 155 27 227 76 111 75 199 205 239 353 29 110 25 333 -8 450 -45
155 -107 276 -205 396 -136 167 -400 319 -627 360 -36 6 -81 16 -101 21 -36 9
-402 13 -410 4z"/>
<path d="M881 2392 c-27 -28 -41 -54 -46 -81 -7 -45 2 -118 16 -127 23 -14 4
-33 -47 -49 -31 -10 -84 -38 -117 -64 -50 -38 -68 -59 -98 -121 -46 -94 -60
-185 -29 -195 10 -3 43 1 72 11 29 9 85 20 123 24 39 5 122 16 185 25 63 9
149 20 190 25 147 18 196 27 235 44 82 35 92 63 46 129 -72 104 -197 167 -333
167 -31 0 -59 4 -63 9 -3 5 -7 37 -10 71 -5 64 -29 123 -64 154 -21 19 -21 19
-60 -22z"/>
<path d="M1039 1786 c-8 -8 -307 -65 -359 -68 -32 -3 -35 -6 -38 -36 -7 -75
47 -227 118 -332 70 -103 212 -190 310 -190 49 0 138 38 202 88 65 49 121 130
116 168 -3 29 -3 29 -88 34 -107 7 -163 30 -201 83 -44 60 -36 150 17 208 36
38 31 49 -24 49 -27 0 -51 -2 -53 -4z"/>
</g>
</svg>
